<?xml version="1.0" encoding="UTF-8"?>
<svg xmlns="http://www.w3.org/2000/svg" xmlns:xlink="http://www.w3.org/1999/xlink" width="25px" height="25px" viewBox="0 0 25 25" version="1.1">
<g id="surface1">
<path style=" stroke:none;fill-rule:nonzero;fill:rgb(0%,0%,0%);fill-opacity:1;" d="M 12.5 0 C 5.597656 0 0 5.597656 0 12.5 C 0 19.402344 5.597656 25 12.5 25 C 19.402344 25 25 19.402344 25 12.5 C 25 5.597656 19.402344 0 12.5 0 Z M 12.5 24.21875 C 6.039062 24.21875 0.78125 18.960938 0.78125 12.5 C 0.78125 6.039062 6.039062 0.78125 12.5 0.78125 C 18.960938 0.78125 24.21875 6.039062 24.21875 12.5 C 24.21875 18.960938 18.960938 24.21875 12.5 24.21875 Z M 12.5 24.21875 "/>
<path style=" stroke:none;fill-rule:nonzero;fill:rgb(0%,0%,0%);fill-opacity:1;" d="M 12.570312 5.1875 C 10.972656 5.1875 9.671875 6.488281 9.671875 8.085938 C 9.671875 9.679688 10.972656 10.980469 12.570312 10.980469 C 14.164062 10.980469 15.464844 9.679688 15.464844 8.085938 C 15.464844 6.488281 14.164062 5.1875 12.570312 5.1875 Z M 12.570312 10.199219 C 11.402344 10.199219 10.453125 9.25 10.453125 8.085938 C 10.453125 6.917969 11.402344 5.96875 12.570312 5.96875 C 13.734375 5.96875 14.683594 6.917969 14.683594 8.085938 C 14.683594 9.25 13.734375 10.199219 12.570312 10.199219 Z M 12.570312 10.199219 "/>
<path style=" stroke:none;fill-rule:nonzero;fill:rgb(0%,0%,0%);fill-opacity:1;" d="M 15.335938 12.316406 L 12.570312 14.40625 L 9.800781 12.316406 C 6.390625 13.339844 6.433594 16.789062 6.433594 16.789062 L 18.703125 16.789062 C 18.703125 16.789062 18.746094 13.339844 15.335938 12.316406 Z M 12.566406 16.007812 L 7.316406 16.007812 C 7.503906 15.15625 8.058594 13.824219 9.660156 13.191406 L 12.097656 15.027344 C 12.238281 15.132812 12.402344 15.183594 12.570312 15.183594 C 12.734375 15.183594 12.898438 15.132812 13.039062 15.027344 L 15.476562 13.191406 C 17.085938 13.828125 17.636719 15.15625 17.824219 16.007812 Z M 12.566406 16.007812 "/>
</g>
</svg>
