<?xml version="1.0" encoding="UTF-8"?>
<svg xmlns="http://www.w3.org/2000/svg" xmlns:xlink="http://www.w3.org/1999/xlink" width="25px" height="25px" viewBox="0 0 25 25" version="1.1">
<g id="surface1">
<path style=" stroke:none;fill-rule:nonzero;fill:rgb(0%,0%,0%);fill-opacity:1;" d="M 11.183594 3.105469 C 12.355469 3.105469 13.304688 4.050781 13.304688 5.222656 C 13.304688 6.390625 12.355469 7.339844 11.183594 7.339844 C 10.015625 7.339844 9.066406 6.390625 9.066406 5.222656 C 9.066406 4.050781 10.015625 3.105469 11.183594 3.105469 Z M 3.414062 15.941406 L 3.394531 15.921875 C 3.308594 15.863281 3.230469 15.8125 3.160156 15.734375 L 3.394531 18.421875 L 0.445312 22.597656 C 0.0273438 23.203125 0.171875 24.023438 0.757812 24.445312 C 1.363281 24.863281 2.183594 24.71875 2.605469 24.132812 L 5.785156 19.542969 C 5.953125 19.308594 6.058594 18.996094 6.019531 18.683594 L 5.914062 17.386719 Z M 12.171875 24.679688 L 24.804688 24.679688 L 22.441406 17.308594 C 22.441406 17.308594 21.101562 17.640625 18.457031 20.449219 C 18.398438 20.507812 18.332031 20.578125 18.273438 20.636719 L 11.886719 16.945312 C 11.996094 16.742188 12.015625 16.507812 11.976562 16.253906 L 9.710938 7.859375 C 9.527344 7.039062 8.792969 6.414062 7.933594 6.414062 L 3.707031 6.414062 C 3.394531 6.414062 3.082031 6.578125 2.90625 6.851562 L 0.796875 10.511719 C 0.523438 10.953125 0.691406 11.519531 1.128906 11.773438 L 3.492188 13.128906 L 3.179688 13.65625 C 2.800781 14.28125 3.015625 15.082031 3.660156 15.433594 L 8.960938 18.488281 L 8.960938 23.332031 C 8.960938 24.0625 9.546875 24.648438 10.277344 24.648438 C 11.007812 24.648438 11.59375 24.0625 11.59375 23.332031 L 11.59375 17.804688 L 17.460938 21.203125 C 16.25 21.894531 14.867188 22.023438 13.878906 22.609375 C 12.667969 23.332031 12.171875 24.679688 12.171875 24.679688 Z M 3.941406 12.359375 L 2.390625 11.460938 L 4.234375 8.277344 L 6.304688 8.277344 Z M 7.347656 14.328125 L 8.8125 11.773438 L 9.90625 15.792969 Z M 21.3125 0.316406 C 19.390625 0.316406 17.835938 1.875 17.835938 3.796875 C 17.835938 4.277344 17.933594 4.859375 18.109375 5.277344 C 18.917969 7.207031 21.3125 12.949219 21.3125 12.949219 C 21.3125 12.949219 23.707031 7.210938 24.519531 5.28125 C 24.691406 4.863281 24.792969 4.277344 24.792969 3.796875 C 24.792969 1.875 23.234375 0.316406 21.3125 0.316406 Z M 21.3125 5.402344 C 20.441406 5.402344 19.734375 4.695312 19.734375 3.820312 C 19.734375 2.945312 20.441406 2.238281 21.3125 2.238281 C 22.1875 2.238281 22.894531 2.945312 22.894531 3.820312 C 22.894531 4.695312 22.1875 5.402344 21.3125 5.402344 Z M 21.3125 5.402344 "/>
</g>
</svg>
