<?xml version="1.0" encoding="UTF-8"?>
<svg xmlns="http://www.w3.org/2000/svg" xmlns:xlink="http://www.w3.org/1999/xlink" width="25px" height="25px" viewBox="0 0 25 25" version="1.1">
<g id="surface1">
<path style=" stroke:none;fill-rule:evenodd;fill:rgb(20%,20%,20%);fill-opacity:1;" d="M 9.019531 4.703125 C 8.371094 5.601562 8.226562 6.597656 8.402344 7.128906 C 8.492188 7.402344 8.34375 7.695312 8.070312 7.785156 C 7.796875 7.875 7.5 7.726562 7.410156 7.453125 C 7.105469 6.515625 7.394531 5.171875 8.179688 4.09375 C 8.988281 2.976562 10.359375 2.082031 12.3125 2.082031 C 14.292969 2.082031 15.769531 2.898438 16.671875 3.976562 C 17.558594 5.03125 17.921875 6.386719 17.582031 7.449219 C 17.496094 7.722656 17.203125 7.875 16.929688 7.789062 C 16.652344 7.699219 16.503906 7.40625 16.589844 7.132812 C 16.792969 6.496094 16.597656 5.507812 15.875 4.644531 C 15.171875 3.804688 13.988281 3.125 12.3125 3.125 C 10.714844 3.125 9.648438 3.839844 9.019531 4.703125 Z M 9.019531 4.703125 "/>
<path style=" stroke:none;fill-rule:evenodd;fill:rgb(20%,20%,20%);fill-opacity:1;" d="M 9.894531 3.125 C 10.183594 3.125 10.417969 3.359375 10.417969 3.644531 L 10.417969 5.730469 C 10.417969 6.015625 10.183594 6.25 9.894531 6.25 C 9.609375 6.25 9.375 6.015625 9.375 5.730469 L 9.375 3.644531 C 9.375 3.359375 9.609375 3.125 9.894531 3.125 Z M 9.894531 3.125 "/>
<path style=" stroke:none;fill-rule:evenodd;fill:rgb(20%,20%,20%);fill-opacity:1;" d="M 12.5 2.082031 C 12.789062 2.082031 13.019531 2.316406 13.019531 2.605469 L 13.019531 4.6875 C 13.019531 4.976562 12.789062 5.207031 12.5 5.207031 C 12.210938 5.207031 11.980469 4.976562 11.980469 4.6875 L 11.980469 2.605469 C 11.980469 2.316406 12.210938 2.082031 12.5 2.082031 Z M 12.5 2.082031 "/>
<path style=" stroke:none;fill-rule:evenodd;fill:rgb(20%,20%,20%);fill-opacity:1;" d="M 9.441406 15.429688 C 9.320312 15.1875 9.054688 15.054688 8.789062 15.121094 C 5.976562 15.8125 3.125 17.222656 3.125 19.34375 L 3.125 22.917969 L 21.875 22.917969 L 21.875 19.34375 C 21.875 17.222656 19.023438 15.8125 16.210938 15.121094 C 15.945312 15.054688 15.679688 15.1875 15.558594 15.429688 L 13.441406 15.429688 C 12.980469 15.429688 12.746094 15.429688 12.511719 15.429688 C 12.273438 15.429688 12.035156 15.429688 11.558594 15.429688 Z M 13.441406 16.472656 C 12.976562 16.472656 12.742188 16.472656 12.511719 16.472656 C 12.273438 16.472656 12.039062 16.472656 11.558594 16.472656 L 8.789062 16.472656 L 8.667969 16.226562 C 7.460938 16.554688 6.320312 17.007812 5.476562 17.566406 C 4.527344 18.191406 4.167969 18.800781 4.167969 19.34375 L 4.167969 21.875 L 20.832031 21.875 L 20.832031 19.34375 C 20.832031 18.800781 20.472656 18.191406 19.523438 17.566406 C 18.679688 17.007812 17.539062 16.554688 16.332031 16.226562 L 16.210938 16.472656 Z M 13.441406 16.472656 "/>
<path style=" stroke:none;fill-rule:nonzero;fill:rgb(20%,20%,20%);fill-opacity:1;" d="M 8.332031 18.230469 C 8.332031 17.941406 8.566406 17.707031 8.855469 17.707031 C 9.140625 17.707031 9.375 17.941406 9.375 18.230469 L 9.375 21.875 C 9.375 22.164062 9.140625 22.394531 8.855469 22.394531 C 8.566406 22.394531 8.332031 22.164062 8.332031 21.875 Z M 8.332031 18.230469 "/>
<path style=" stroke:none;fill-rule:nonzero;fill:rgb(20%,20%,20%);fill-opacity:1;" d="M 15.625 18.230469 C 15.625 17.941406 15.859375 17.707031 16.144531 17.707031 C 16.433594 17.707031 16.667969 17.941406 16.667969 18.230469 L 16.667969 21.875 C 16.667969 22.164062 16.433594 22.394531 16.144531 22.394531 C 15.859375 22.394531 15.625 22.164062 15.625 21.875 Z M 15.625 18.230469 "/>
<path style=" stroke:none;fill-rule:evenodd;fill:rgb(20%,20%,20%);fill-opacity:1;" d="M 15.105469 3.125 C 15.390625 3.125 15.625 3.359375 15.625 3.644531 L 15.625 5.730469 C 15.625 6.015625 15.390625 6.25 15.105469 6.25 C 14.816406 6.25 14.582031 6.015625 14.582031 5.730469 L 14.582031 3.644531 C 14.582031 3.359375 14.816406 3.125 15.105469 3.125 Z M 15.105469 3.125 "/>
<path style=" stroke:none;fill-rule:evenodd;fill:rgb(20%,20%,20%);fill-opacity:1;" d="M 6.546875 8.210938 C 6.453125 7.554688 6.839844 6.9375 7.464844 6.382812 L 8.160156 7.160156 C 7.613281 7.644531 7.558594 7.941406 7.578125 8.066406 C 7.597656 8.195312 7.726562 8.414062 8.195312 8.648438 C 9.109375 9.113281 10.765625 9.375 12.5 9.375 C 14.234375 9.375 15.890625 9.113281 16.804688 8.648438 C 17.273438 8.414062 17.402344 8.195312 17.421875 8.066406 C 17.441406 7.941406 17.386719 7.644531 16.839844 7.160156 L 17.535156 6.382812 C 18.160156 6.9375 18.546875 7.554688 18.453125 8.210938 C 18.363281 8.859375 17.835938 9.296875 17.277344 9.578125 C 16.140625 10.15625 14.28125 10.417969 12.5 10.417969 C 10.71875 10.417969 8.859375 10.15625 7.722656 9.578125 C 7.164062 9.296875 6.636719 8.859375 6.546875 8.210938 Z M 6.546875 8.210938 "/>
<path style=" stroke:none;fill-rule:evenodd;fill:rgb(20%,20%,20%);fill-opacity:1;" d="M 8.855469 9.375 C 8.855469 11.386719 10.488281 13.019531 12.5 13.019531 C 14.511719 13.019531 16.144531 11.386719 16.144531 9.375 L 17.1875 9.375 C 17.1875 11.964844 15.089844 14.0625 12.5 14.0625 C 9.910156 14.0625 7.8125 11.964844 7.8125 9.375 Z M 8.855469 9.375 "/>
</g>
</svg>
